<svg xmlns="http://www.w3.org/2000/svg" width="56.669" height="30.341" viewBox="0 0 56.669 30.341">
  <g id="noun-health-121688" transform="translate(-73.863 -132.155)">
    <path id="Path_527" data-name="Path 527" d="M129.241,146.92h-7.125a1.29,1.29,0,0,0-1.2.811l-.885,2.216-4.908-12.284a1.29,1.29,0,0,0-2.4,0l-3.7,9.256h-5.076a13.351,13.351,0,0,0-.024-9.558,8.08,8.08,0,0,0-5.269-4.792,9.95,9.95,0,0,0-2.76-.414,8.042,8.042,0,0,0-6.556,3.441,8.043,8.043,0,0,0-6.557-3.441,9.921,9.921,0,0,0-2.76.415,8.079,8.079,0,0,0-5.268,4.792,13.766,13.766,0,0,0,.8,11.446c3.175,6.075,12.619,13.136,13.019,13.434a1.292,1.292,0,0,0,1.539,0c.386-.287,9.141-6.835,12.631-12.742h7.16a1.291,1.291,0,0,0,1.2-.811l2.824-7.069,4.908,12.284a1.29,1.29,0,0,0,2.4,0l1.759-4.4h6.251a1.29,1.29,0,0,0,0-2.58Zm-39.9,12.66c-2.3-1.8-9.095-7.36-11.5-11.966a11.3,11.3,0,0,1-.71-9.239,5.618,5.618,0,0,1,3.615-3.328,7.374,7.374,0,0,1,2.041-.312c3.522,0,5.092,3.249,5.371,3.9a1.29,1.29,0,0,0,2.372,0c.279-.652,1.849-3.9,5.37-3.9a7.367,7.367,0,0,1,2.041.312,5.615,5.615,0,0,1,3.615,3.328,11.291,11.291,0,0,1-.709,9.238c-2.408,4.607-9.205,10.167-11.5,11.967Z" transform="translate(0)" fill="#fff"/>
  </g>
</svg>
