<svg width="173" height="64" viewBox="0 0 173 64" fill="none" xmlns="http://www.w3.org/2000/svg">
<path d="M131.968 21.5792C135.524 21.5792 137.491 19.0827 137.491 16.5106C137.491 15.13 136.545 12.8227 133.216 12.8227C130.19 12.8227 127.259 14.9409 127.259 17.721C127.259 19.7447 129.131 21.5981 131.949 21.5981L131.968 21.5792Z" fill="#6C6AF2"/>
<path d="M143.183 49.8156C147.362 49.8156 155.495 46.487 155.495 41.9669C155.495 40.5863 153.925 39.3759 152.261 39.3759C149.235 39.3759 147.665 43.0638 143.712 43.0638C140.894 43.0638 139.854 40.6619 139.854 37.9953C139.854 34.3073 141.216 29.5981 141.216 27.9338C141.216 26.6477 140.062 24.5106 137.358 24.5106C135.164 24.5106 133.708 25.1536 132.875 26.364C131.93 27.6501 131.514 32.0945 131.514 34.4019C131.514 35.7068 131.608 36.974 131.797 38.2222C127.769 40.0378 122.209 43.3664 118.937 43.3664C116.951 43.3664 115.287 42.3451 113.925 40.1324C120.299 32.2837 124.875 20.1986 124.875 11.9905C124.875 8.39716 123.627 0 116.535 0C108.195 0 103.277 11.9905 103.277 24.4539C103.277 29.6927 104.242 35.0449 106.152 39.4893C103.618 39.9432 101.594 43.1773 98.4735 43.1773C94.8234 43.1773 94.7099 40.9645 94.5019 38.7517C96.0716 33.0213 98.7761 16.6052 98.7761 8.94562C98.7761 5.52245 98.0385 3.04492 94.5964 3.04492C90.6248 3.04492 87.9203 11.3475 87.9203 21.2198C87.9203 22.6005 88.0338 23.9811 88.1283 25.3806C87.0882 24.8321 85.6319 24.3593 83.7406 24.3593C78.7288 24.3593 69.7643 29.0685 69.7643 38.8463C69.7643 39.2624 69.8021 39.6974 69.8588 40.1134C67.8919 41.2104 65.944 43.1773 63.3151 43.1773C61.5373 43.1773 61.1213 41.9858 61.1213 40.6808C61.1213 39.2057 63.1071 32.5674 63.1071 28.5012C63.1071 27.026 60.1946 26.7423 58.6248 26.7423C57.2631 25.721 55.3908 24.7943 52.8943 24.7943C43.9676 24.7943 36.6485 32.9645 36.2324 40.1324C36.1946 40.1702 36.1378 40.1891 36.1 40.208C34.8518 41.0402 32.3364 43.1584 29.9345 43.1584C28.7809 43.1584 27.8541 42.4208 27.8541 41.0402C27.8541 38.2789 28.7998 35.1395 28.7998 30.8841C28.7998 27.5555 26.6059 23.8676 20.5539 23.8676C16.1662 23.8676 11.4759 27.6501 8.54446 31.9054C8.22295 25.6265 9.16858 24.0567 4.57284 24.0567C1.84943 24.0756 0.0905682 26.5532 0.0905682 28.6903C0.0905682 41.4184 -0.968533 49.2671 4.15676 49.2671C7.71231 49.2671 8.84706 47.338 8.7525 41.7967C10.9464 36.8983 15.8447 30.8085 19.0787 30.8085C20.6485 30.8085 21.1591 32 21.1591 33.8534C21.1591 35.9716 20.327 39.1111 20.327 42.5343C20.327 47.9811 24.5066 50.0047 29.0835 50.0047C31.5988 50.0047 35.7218 48.7565 38.6154 46.8085C40.5066 48.6619 43.2868 49.6264 46.0858 49.6264C49.3199 49.6264 53.0835 48.1513 54.7478 46.5815C55.6934 48.2458 58.6059 50.0047 62.7856 50.0047C65.5279 50.0047 69.9723 48.643 72.8092 46.4302C74.7572 48.5106 77.613 49.929 81.2442 49.929C85.8399 49.929 89.282 47.2435 90.6437 45.9574C91.6839 47.9811 93.4617 50.0236 98.4735 50.0236C101.367 50.0236 106.946 47.5839 109.14 44.6335C111.712 47.9243 115.098 50.0236 119.353 50.0236C123.173 50.0236 129.641 47.4704 134.01 44.6903C135.901 47.7919 138.908 49.8345 143.202 49.8345L143.183 49.8156ZM53.7076 39.2057C51.9298 40.9645 49.2253 42.2506 47.334 42.2506C45.1402 42.156 44.1946 40.87 44.1946 39.1111C44.1946 35.7825 48.2608 31.9054 53.386 31.9054C54.3317 31.9054 55.1638 32.5484 55.1638 33.4752C55.1638 34.7612 55.1638 37.7305 53.7076 39.2057ZM81.8872 42.799C79.6934 42.799 78.2371 40.9456 78.2371 38.4681C78.2371 33.7588 82.2087 30.9031 84.7052 30.9031C86.9936 30.9031 88.6768 32.851 88.6768 34.9692C88.6768 37.7305 85.2347 42.8179 81.8872 42.8179V42.799ZM110.899 22.487C110.899 14.922 112.885 8.64302 115.495 8.64302C116.856 8.64302 117.481 10.9503 117.481 13.617C117.481 19.8014 115.816 25.7967 111.637 32.7187C111.107 29.5792 110.899 26.2506 110.899 22.4681V22.487Z" fill="#6C6AF2"/>
<path d="M168.829 38.1277C166.957 38.1844 165.558 39.792 165.539 41.6643C165.463 50.2317 158.465 57.1915 149.879 57.1915C147.591 57.1915 145.416 56.6998 143.449 55.8109C142.22 55.2624 140.763 55.5083 139.761 56.4161C137.945 58.0615 138.418 61.0118 140.65 62.0142C143.468 63.2813 146.588 64 149.879 64C162.267 64 172.347 53.9196 172.347 41.5319C172.347 39.6218 170.759 38.0709 168.829 38.1277Z" fill="#6C6AF2"/>
</svg>
